<?xml version="1.0" encoding="UTF-8"?>
<svg width="14px" height="14px" viewBox="0 0 14 14" version="1.1" xmlns="http://www.w3.org/2000/svg" xmlns:xlink="http://www.w3.org/1999/xlink">
    <!-- Generator: Sketch 40 (33762) - http://www.bohemiancoding.com/sketch -->
    <title>add</title>
    <desc>Created with Sketch.</desc>
    <defs></defs>
    <g id="Page-1" stroke="none" stroke-width="1" fill="none" fill-rule="evenodd">
        <g id="Main" transform="translate(-550.000000, -48.000000)" fill="#1ABEDF">
            <path d="M563.096439,54.1117073 L557.857854,54.1117073 L557.857854,48.873122 C557.857854,48.3909268 557.466976,48.0000488 556.98478,48.0000488 C556.502585,48.0000488 556.111707,48.3909268 556.111707,48.873122 L556.111707,54.1116585 L550.873171,54.1116585 C550.390976,54.1116585 550,54.5025366 550,54.9847317 C550,55.4669268 550.390976,55.8578049 550.873171,55.8578049 L556.111707,55.8578049 L556.111707,61.0963415 C556.111707,61.5785366 556.502585,61.9694146 556.98478,61.9694146 C557.466976,61.9694146 557.857854,61.5785366 557.857854,61.0963415 L557.857854,55.8578049 L563.096439,55.8578049 C563.578634,55.8578049 563.969512,55.466878 563.969512,54.9847317 C563.969561,54.5025854 563.578634,54.1117073 563.096439,54.1117073 L563.096439,54.1117073 Z" id="add"></path>
        </g>
    </g>
</svg>