<?xml version="1.0" encoding="UTF-8"?>
<svg width="8px" height="7px" viewBox="0 0 8 7" version="1.1" xmlns="http://www.w3.org/2000/svg" xmlns:xlink="http://www.w3.org/1999/xlink">
    <!-- Generator: Sketch 40 (33762) - http://www.bohemiancoding.com/sketch -->
    <title>check</title>
    <desc>Created with Sketch.</desc>
    <defs></defs>
    <g id="Page-1" stroke="none" stroke-width="1" fill="none" fill-rule="evenodd">
        <g id="Main" transform="translate(-42.000000, -175.000000)" fill="#FFFFFF">
            <path d="M46.1416889,181.353778 C45.9336889,181.636089 45.6097778,181.8096 45.2595556,181.826844 C44.9093333,181.844267 44.5701333,181.703111 44.3354667,181.442489 L42.2325333,179.1088 C41.8983111,178.738133 41.928,178.166756 42.2986667,177.832533 C42.6696889,177.498311 43.2407111,177.528178 43.5749333,177.899022 L45.0627556,179.550222 C45.0848,179.574756 45.1168,179.587911 45.1496889,179.586311 C45.1827556,179.584711 45.2129778,179.568178 45.2327111,179.541867 L48.2908444,175.394133 C48.5868444,174.992356 49.1525333,174.906844 49.5544889,175.203022 C49.9560889,175.4992 50.0414222,176.064889 49.7452444,176.466489 L46.1416889,181.353778 L46.1416889,181.353778 Z" id="check"></path>
        </g>
    </g>
</svg>