<?xml version="1.0" encoding="UTF-8"?>
<svg width="189px" height="148px" viewBox="0 0 189 148" version="1.1" xmlns="http://www.w3.org/2000/svg" xmlns:xlink="http://www.w3.org/1999/xlink">
    <!-- Generator: Sketch 40 (33762) - http://www.bohemiancoding.com/sketch -->
    <title>Eggy</title>
    <desc>Created with Sketch.</desc>
    <defs></defs>
    <g id="Page-1" stroke="none" stroke-width="1" fill="none" fill-rule="evenodd">
        <g id="Main-(empty-state)" transform="translate(-605.000000, -151.000000)">
            <g id="Eggy" transform="translate(576.000000, 113.000000)">
                <g id="Group" transform="translate(120.707158, 109.594132) rotate(-31.000000) translate(-120.707158, -109.594132) translate(21.207158, 42.594132)" fill="#F5F5FB">
                    <rect id="Rectangle" x="38.7244556" y="0.0953410574" width="26.8862154" height="15.5438117" rx="7.77190584"></rect>
                    <rect id="Rectangle" x="122.514425" y="117.651695" width="26.8862154" height="15.5438117" rx="7.77190584"></rect>
                    <path d="M198.854742,45.8607674 C198.109314,45.6227595 197.315063,45.4942322 196.490858,45.4942322 L8.55500276,45.4942322 C8.05063147,45.4942322 7.55729346,45.5424266 7.07937758,45.6344683 L24.2615933,45.6344683 C28.549111,45.6344683 32.0248308,49.122803 32.0248308,53.4063741 C32.0248308,57.1935247 29.3188705,60.3480062 25.7372209,61.0380439 L167.469179,61.0380439 C164.334624,60.0361056 162.064326,57.094012 162.064326,53.6326732 C162.064326,49.3403682 165.534927,45.8607674 169.830457,45.8607674 L198.854742,45.8607674 Z" id="Combined-Shape"></path>
                    <rect id="Rectangle" x="11.763999" y="30.3169557" width="162.190946" height="15.5438117" rx="7.77190584"></rect>
                    <rect id="Rectangle" x="0.780297822" y="60.6715087" width="197.406661" height="15.5438117" rx="7.77190584"></rect>
                    <path d="M14.0517941,75.8487852 L175.990375,75.8487852 C172.493967,76.6093817 169.879491,79.7205285 169.879491,83.4428788 C169.879491,87.7264499 173.35948,91.2147846 177.652264,91.2147846 L198.149631,91.2147846 C197.614955,91.3312448 197.059929,91.3925968 196.490858,91.3925968 L14.0517941,91.3925968 L19.5485855,91.3925968 C23.844945,91.3925968 27.3213582,87.9129961 27.3213582,83.620691 C27.3213582,79.3371199 23.8413693,75.8487852 19.5485855,75.8487852 L14.0517941,75.8487852 Z" id="Combined-Shape"></path>
                    <rect id="Rectangle" x="17.8476142" y="90.0033624" width="165.309998" height="15.5438117" rx="7.77190584"></rect>
                </g>
                <path d="M119.440545,183.821995 C150.47701,183.821995 175.637036,158.661969 175.637036,127.625504 C175.637036,96.5890395 150.47701,39.8129997 119.440545,39.8129997 C88.4040804,39.8129997 63.2440545,96.5890395 63.2440545,127.625504 C63.2440545,158.661969 88.4040804,183.821995 119.440545,183.821995 Z" id="Oval" stroke="#7E7D90" stroke-width="2.7" fill="#FFFFFF"></path>
                <path d="M119.706444,116.48175 C133.342653,116.48175 144.396984,110.506617 144.396984,103.135917 C144.396984,95.7652169 133.342653,82.2817497 119.706444,82.2817497 C106.070235,82.2817497 95.0159035,95.7652169 95.0159035,103.135917 C95.0159035,110.506617 106.070235,116.48175 119.706444,116.48175 Z" id="Oval" fill="#F5F5FB"></path>
                <path d="M106.380773,109.28175 C106.380773,106.796468 104.366055,104.78175 101.880773,104.78175 C99.3954919,104.78175 97.3807733,106.796468 97.3807733,109.28175" id="Oval-2" stroke="#7E7D90" stroke-width="2.7" stroke-linecap="round"></path>
                <path d="M140.796984,109.28175 C140.796984,106.796468 138.782266,104.78175 136.296984,104.78175 C133.811703,104.78175 131.796984,106.796468 131.796984,109.28175" id="Oval-2" stroke="#7E7D90" stroke-width="2.7" stroke-linecap="round"></path>
                <path d="M126.624922,150.885218 C125.776903,151.137652 124.888453,151.274012 123.973187,151.274012 C118.058217,151.274012 113.263187,145.578981 113.263187,139.664012 C113.263187,133.749042 118.058217,128.054012 123.973187,128.054012 C124.888453,128.054012 125.776903,128.190371 126.624922,128.442805 C124.557355,131.190912 123.883187,135.52343 123.883187,139.664012 C123.883187,143.804593 124.557355,148.137112 126.624922,150.885218 Z" id="Combined-Shape" stroke="#7E7D90" stroke-width="2.7" stroke-linecap="round" stroke-linejoin="round" fill="#D4D2DD" transform="translate(119.944055, 139.664012) scale(1, -1) rotate(90.000000) translate(-119.944055, -139.664012) "></path>
            </g>
        </g>
    </g>
</svg>