<?xml version="1.0" encoding="UTF-8"?>
<svg width="14px" height="14px" viewBox="0 0 14 14" version="1.1" xmlns="http://www.w3.org/2000/svg" xmlns:xlink="http://www.w3.org/1999/xlink">
    <!-- Generator: Sketch 40 (33762) - http://www.bohemiancoding.com/sketch -->
    <title>expand</title>
    <desc>Created with Sketch.</desc>
    <defs></defs>
    <g id="Page-1" stroke="none" stroke-width="1" fill="none" fill-rule="evenodd">
        <g id="Main" transform="translate(-1160.000000, -154.000000)">
            <g id="expand" transform="translate(1160.000000, 154.000000)">
                <g id="Group">
                    <rect id="Rectangle-6" fill="#3E3D50" x="0" y="0" width="14" height="14" rx="3"></rect>
                    <path d="M11.4798739,7.06185891 L2.603834,7.06185891 L4.72178662,4.94376913 C4.90733275,4.75833272 4.90733275,4.45751975 4.72178662,4.27211078 C4.53624048,4.08656464 4.23542751,4.08656464 4.05015569,4.27211078 L1.12135769,7.20096364 C0.935811554,7.38640005 0.935811554,7.68724045 1.12135769,7.872622 L4.05015569,10.801612 C4.14290133,10.8944125 4.26444996,10.9407442 4.38597116,10.9407442 C4.50749235,10.9407442 4.62904098,10.8944125 4.72178662,10.801612 C4.90733275,10.6161756 4.90733275,10.3153626 4.72178662,10.1299811 L2.603834,8.0117816 L11.4798739,8.0117816 C11.7421732,8.0117816 11.9548764,7.79910579 11.9548764,7.53680654 C11.9548764,7.27450729 11.7422006,7.06185891 11.4798739,7.06185891 L11.4798739,7.06185891 Z" id="Shape" fill="#FFFFFF" transform="translate(6.468537, 7.536848) scale(-1, 1) rotate(42.000000) translate(-6.468537, -7.536848) "></path>
                </g>
            </g>
        </g>
    </g>
</svg>