<?xml version="1.0" encoding="UTF-8"?>
<svg width="12px" height="12px" viewBox="0 0 12 12" version="1.1" xmlns="http://www.w3.org/2000/svg" xmlns:xlink="http://www.w3.org/1999/xlink">
    <!-- Generator: Sketch 40 (33762) - http://www.bohemiancoding.com/sketch -->
    <title>info</title>
    <desc>Created with Sketch.</desc>
    <defs></defs>
    <g id="Page-1" stroke="none" stroke-width="1" fill="none" fill-rule="evenodd">
        <g id="Main" transform="translate(-38.000000, -393.000000)" fill="#FFFFFF">
            <path d="M47.7577609,394.74284 C45.5948712,392.580191 42.0880619,392.57995 39.9249314,394.74284 C37.7620418,396.90573 37.7622826,400.412539 39.9249314,402.57567 C42.0878211,404.738078 45.5946304,404.738318 47.7577609,402.57567 C49.9204097,400.412539 49.9201689,396.905971 47.7577609,394.74284 L47.7577609,394.74284 Z M44.5635134,401.067282 C44.5635134,401.466292 44.2401154,401.78969 43.8411054,401.78969 C43.4420953,401.78969 43.1186973,401.466292 43.1186973,401.067282 L43.1186973,398.177649 C43.1186973,397.778639 43.4420953,397.455241 43.8411054,397.455241 C44.2401154,397.455241 44.5635134,397.778639 44.5635134,398.177649 L44.5635134,401.067282 L44.5635134,401.067282 Z M43.8283428,396.942813 C43.4122358,396.942813 43.1348311,396.648071 43.1435,396.284218 C43.1348311,395.902787 43.4122358,395.616954 43.8367709,395.616954 C44.2615468,395.616954 44.5302826,395.903027 44.5391923,396.284218 C44.5389515,396.648071 44.2617876,396.942813 43.8283428,396.942813 L43.8283428,396.942813 Z" id="info"></path>
        </g>
    </g>
</svg>