<?xml version="1.0" encoding="UTF-8"?>
<svg width="94px" height="18px" viewBox="0 0 94 18" version="1.1" xmlns="http://www.w3.org/2000/svg" xmlns:xlink="http://www.w3.org/1999/xlink">
    <!-- Generator: Sketch 40 (33762) - http://www.bohemiancoding.com/sketch -->
    <title>mailminer</title>
    <desc>Created with Sketch.</desc>
    <defs></defs>
    <g id="Page-1" stroke="none" stroke-width="1" fill="none" fill-rule="evenodd">
        <g id="Main-(empty-state)" transform="translate(-61.000000, -54.000000)" fill="#FFFFFF">
            <path d="M144.789528,66.0383729 C144.482067,66.8292674 144.042562,67.4381371 143.471,67.865 C142.891664,68.2976688 142.257337,68.514 141.568,68.514 C141.421333,68.514 141.238001,68.4956668 141.018,68.459 C140.797999,68.4223331 140.578001,68.3526672 140.358,68.25 C140.137999,68.1473328 139.929001,68.0080009 139.731,67.832 C139.532999,67.6559991 139.375334,67.4286681 139.258,67.15 C139.84467,67.15 140.423997,66.9703351 140.996,66.611 C141.568003,66.2516649 142.081331,65.7970027 142.536,65.247 C142.990669,64.6969972 143.360999,64.1066698 143.647,63.476 C143.933001,62.8453302 144.076,62.2550027 144.076,61.705 C144.076,61.1549972 143.907335,60.7003351 143.57,60.341 C143.232665,59.9816649 142.668004,59.802 141.876,59.802 C140.863995,59.802 139.97667,60.0329977 139.214,60.495 C138.45133,60.9570023 137.813336,61.5363298 137.3,62.233 C136.786664,62.9296701 136.398001,63.6776627 136.134,64.477 C135.869999,65.2763373 135.738,66.01333 135.738,66.688 C135.738,66.8208331 135.743207,66.9528325 135.753621,67.0839986 C135.599513,67.3664742 135.440307,67.6158071 135.276,67.832 C134.997332,68.1986685 134.689335,68.3893333 134.352,68.404 C133.999998,68.404 133.772667,68.2830012 133.67,68.041 C133.567333,67.7989988 133.530667,67.4763354 133.56,67.073 C133.589333,66.6696647 133.666333,66.2150025 133.791,65.709 C133.915667,65.2029975 134.032999,64.682336 134.143,64.147 C134.253001,63.611664 134.33,63.0910025 134.374,62.585 C134.418,62.0789975 134.377667,61.6243354 134.253,61.221 C134.128333,60.8176647 133.886335,60.4950012 133.527,60.253 C133.167665,60.0109988 132.65067,59.89 131.976,59.89 C131.535998,59.89 131.154668,59.9633326 130.832,60.11 C130.509332,60.2566674 130.241668,60.4143325 130.029,60.583 C129.816332,60.7516675 129.647667,60.9093326 129.523,61.056 C129.398333,61.2026674 129.306667,61.276 129.248,61.276 C129.336,61.0413322 129.347,60.8396675 129.281,60.671 C129.215,60.5023325 129.101334,60.3666672 128.94,60.264 C128.778666,60.1613328 128.577001,60.0843336 128.335,60.033 C128.092999,59.9816664 127.854668,59.956 127.62,59.956 C127.282665,59.956 126.993001,59.9926663 126.751,60.066 C126.508999,60.1393337 126.351334,60.2419993 126.278,60.374 C126.234,60.5500009 126.157001,60.8909975 126.047,61.397 C125.936999,61.9030025 125.812334,62.4786634 125.673,63.124 C125.533666,63.7693366 125.390667,64.4476631 125.244,65.159 C125.158084,65.5756926 125.075943,65.9735087 124.997577,66.3524521 C124.983784,66.3854364 124.970592,66.416619 124.958,66.446 C124.796666,66.7980018 124.635334,67.1169986 124.474,67.403 C124.312666,67.6890014 124.129334,67.9199991 123.924,68.096 C123.821333,68.1840004 123.711334,68.257333 123.594,68.316 C123.476666,68.374667 123.359334,68.404 123.242,68.404 C122.889998,68.404 122.651667,68.2610014 122.527,67.975 C122.402333,67.6889986 122.34,67.3626685 122.34,66.996 C122.34,66.7173319 122.373,66.3763353 122.439,65.973 C122.505,65.5696646 122.589333,65.1516688 122.692,64.719 C122.794667,64.2863312 122.900999,63.8500022 123.011,63.41 C123.121001,62.9699978 123.227333,62.5703351 123.33,62.211 C123.432667,61.8516649 123.517,61.5546678 123.583,61.32 C123.649,61.0853322 123.682,60.9460002 123.682,60.902 C123.682,60.7259991 123.583001,60.5793339 123.385,60.462 C123.186999,60.3446661 122.956001,60.2456671 122.692,60.165 C122.427999,60.0843329 122.167668,60.0293335 121.911,60 C121.654332,59.9706665 121.460001,59.956 121.328,59.956 C121.107999,59.9706667 120.921001,60.0219996 120.767,60.11 C120.612999,60.1980004 120.484667,60.3519989 120.382,60.572 C120.264666,60.8213346 120.151001,61.1476646 120.041,61.551 C119.930999,61.9543353 119.824667,62.3943309 119.722,62.871 C119.619333,63.347669 119.520334,63.8463307 119.425,64.367 C119.329666,64.8876693 119.245334,65.3899976 119.172,65.874 C119.147537,66.0354566 119.125114,66.1924241 119.104731,66.3449031 C119.089792,66.3806879 119.075549,66.4143868 119.062,66.446 C118.812665,67.0033361 118.548668,67.4653315 118.27,67.832 C117.991332,68.1986685 117.683335,68.3893333 117.346,68.404 C116.993998,68.404 116.766667,68.2830012 116.664,68.041 C116.561333,67.7989988 116.524667,67.4763354 116.554,67.073 C116.583333,66.6696647 116.660333,66.2150025 116.785,65.709 C116.909667,65.2029975 117.026999,64.682336 117.137,64.147 C117.247001,63.611664 117.324,63.0910025 117.368,62.585 C117.412,62.0789975 117.371667,61.6243354 117.247,61.221 C117.122333,60.8176647 116.880335,60.4950012 116.521,60.253 C116.161665,60.0109988 115.64467,59.89 114.97,59.89 C114.500664,59.89 114.082669,59.9633326 113.716,60.11 C113.349332,60.2566674 113.030335,60.4143325 112.759,60.583 C112.487665,60.7516675 112.267668,60.9093326 112.099,61.056 C111.930332,61.2026674 111.816667,61.276 111.758,61.276 C111.772667,61.2026663 111.747,61.0890008 111.681,60.935 C111.615,60.7809992 111.494001,60.6270008 111.318,60.473 C111.141999,60.3189992 110.903668,60.1833339 110.603,60.066 C110.302332,59.9486661 109.932002,59.89 109.492,59.89 C109.081331,59.89 108.722002,59.9559993 108.414,60.088 C108.105998,60.2200007 107.845668,60.3666659 107.633,60.528 C107.420332,60.6893341 107.248001,60.8359993 107.116,60.968 C106.983999,61.1000007 106.888667,61.166 106.83,61.166 C106.874,60.9606656 106.859334,60.7810008 106.786,60.627 C106.712666,60.4729992 106.591668,60.3483338 106.423,60.253 C106.254332,60.1576662 106.060001,60.0843336 105.84,60.033 C105.619999,59.9816664 105.392668,59.956 105.158,59.956 C105.084666,59.956 104.985667,59.9596666 104.861,59.967 C104.736333,59.9743334 104.608001,59.9926665 104.476,60.022 C104.343999,60.0513335 104.215667,60.0916664 104.091,60.143 C103.966333,60.1943336 103.867334,60.2713328 103.794,60.374 C103.75,60.5500009 103.673001,60.8909975 103.563,61.397 C103.452999,61.9030025 103.328334,62.4786634 103.189,63.124 C103.049666,63.7693366 102.906667,64.4476631 102.76,65.159 C102.674084,65.5756926 102.591943,65.9735087 102.513577,66.3524521 C102.499784,66.3854364 102.486592,66.416619 102.474,66.446 C102.312666,66.7980018 102.151334,67.1169986 101.99,67.403 C101.828666,67.6890014 101.645334,67.9199991 101.44,68.096 C101.337333,68.1840004 101.231001,68.257333 101.121,68.316 C101.010999,68.374667 100.890001,68.404 100.758,68.404 C100.405998,68.404 100.167667,68.2573348 100.043,67.964 C99.9183327,67.6706652 99.856,67.3406685 99.856,66.974 C99.856,66.6219982 99.9183327,66.10867 100.043,65.434 C100.167667,64.75933 100.328999,64.0150041 100.527,63.201 C100.725001,62.3869959 100.933999,61.5473377 101.154,60.682 C101.374001,59.8166623 101.582999,59.0136704 101.781,58.273 C101.979001,57.5323296 102.140333,56.9053359 102.265,56.392 C102.389667,55.8786641 102.452,55.5633339 102.452,55.446 C102.452,55.2699991 102.353001,55.1233339 102.155,55.006 C101.956999,54.8886661 101.726001,54.7896671 101.462,54.709 C101.197999,54.6283329 100.937668,54.5733335 100.681,54.544 C100.424332,54.5146665 100.230001,54.5 100.098,54.5 C99.8779989,54.5146667 99.6910008,54.5659996 99.537,54.654 C99.3829992,54.7420004 99.2546672,54.8959989 99.152,55.116 C99.0346661,55.3653346 98.8916675,55.8126634 98.723,56.458 C98.5543325,57.1033366 98.3673344,57.8513291 98.162,58.702 C97.9566656,59.5526709 97.755001,60.4583285 97.557,61.419 C97.358999,62.3796715 97.1793341,63.3036622 97.018,64.191 C96.8852523,64.9211123 96.7723653,65.5916385 96.6793368,66.2025918 C96.64208,66.2941614 96.6083012,66.3752971 96.578,66.446 C96.4166659,66.7980018 96.2553341,67.1169986 96.094,67.403 C95.9326659,67.6890014 95.7493344,67.9199991 95.544,68.096 C95.4413328,68.1840004 95.3313339,68.257333 95.214,68.316 C95.0966661,68.374667 94.9793339,68.404 94.862,68.404 C94.5099982,68.404 94.2716673,68.2610014 94.147,67.975 C94.0223327,67.6889986 93.96,67.3626685 93.96,66.996 C93.96,66.7173319 93.9929997,66.3763353 94.059,65.973 C94.1250003,65.5696646 94.2093328,65.1516688 94.312,64.719 C94.4146672,64.2863312 94.5209995,63.8500022 94.631,63.41 C94.7410006,62.9699978 94.8473328,62.5703351 94.95,62.211 C95.0526672,61.8516649 95.1369997,61.5546678 95.203,61.32 C95.2690003,61.0853322 95.302,60.9460002 95.302,60.902 C95.302,60.7259991 95.203001,60.5793339 95.005,60.462 C94.806999,60.3446661 94.5760013,60.2456671 94.312,60.165 C94.0479987,60.0843329 93.787668,60.0293335 93.531,60 C93.2743321,59.9706665 93.0800007,59.956 92.948,59.956 C92.7279989,59.9706667 92.5410008,60.0219996 92.387,60.11 C92.2329992,60.1980004 92.1046672,60.3519989 92.002,60.572 C91.8846661,60.8213346 91.7710006,61.1476646 91.661,61.551 C91.5509995,61.9543353 91.4446672,62.3943309 91.342,62.871 C91.2393328,63.347669 91.1403338,63.8463307 91.045,64.367 C90.9496662,64.8876693 90.8653337,65.3899976 90.792,65.874 C90.7675369,66.0354566 90.745114,66.1924241 90.7247313,66.3449031 C90.7097923,66.3806879 90.6955485,66.4143868 90.682,66.446 C90.5206659,66.7980018 90.3593341,67.1169986 90.198,67.403 C90.0366659,67.6890014 89.8533344,67.9199991 89.648,68.096 C89.5453328,68.1840004 89.4353339,68.257333 89.318,68.316 C89.2006661,68.374667 89.0833339,68.404 88.966,68.404 C88.5993315,68.404 88.3573339,68.2536682 88.24,67.953 C88.1226661,67.6523318 88.064,67.3113352 88.064,66.93 C88.064,66.6513319 88.0969997,66.314002 88.163,65.918 C88.2290003,65.521998 88.3133328,65.1040022 88.416,64.664 C88.5186672,64.2239978 88.6323327,63.7876688 88.757,63.355 C88.8816673,62.9223312 88.9953328,62.5300018 89.098,62.178 C89.2006672,61.8259982 89.2849997,61.5363345 89.351,61.309 C89.4170003,61.0816655 89.45,60.9460002 89.45,60.902 C89.45,60.7259991 89.351001,60.5793339 89.153,60.462 C88.954999,60.3446661 88.7240013,60.2456671 88.46,60.165 C88.1959987,60.0843329 87.9356679,60.0293335 87.679,60 C87.422332,59.9706665 87.2280007,59.956 87.096,59.956 C86.8759989,59.9706667 86.6853341,60.0219996 86.524,60.11 C86.3626659,60.1980004 86.2380004,60.3519989 86.15,60.572 C86.0766663,60.7333341 86.0363334,60.814 86.029,60.814 C86.0216666,60.814 85.9813337,60.7773337 85.908,60.704 C85.7026656,60.4546654 85.4350016,60.2566674 85.105,60.11 C84.7749983,59.9633326 84.441335,59.89 84.104,59.89 C83.6639978,59.89 83.2130023,59.9963323 82.751,60.209 C82.2889977,60.4216677 81.8490021,60.7223314 81.431,61.111 C81.0129979,61.4996686 80.6280018,61.9726639 80.276,62.53 C79.9239982,63.0873361 79.6306678,63.70333 79.396,64.378 C79.1319987,65.1406705 78.9780002,65.8849964 78.934,66.611 C78.929326,66.6881206 78.9257278,66.7645377 78.9232053,66.8402514 C78.7298049,67.22501 78.5280709,67.5555909 78.318,67.832 C78.0393319,68.1986685 77.731335,68.3893333 77.394,68.404 C77.0419982,68.404 76.8146672,68.2830012 76.712,68.041 C76.6093328,67.7989988 76.5726665,67.4763354 76.602,67.073 C76.6313335,66.6696647 76.7083327,66.2150025 76.833,65.709 C76.9576673,65.2029975 77.0749995,64.682336 77.185,64.147 C77.2950006,63.611664 77.3719998,63.0910025 77.416,62.585 C77.4600002,62.0789975 77.4196673,61.6243354 77.295,61.221 C77.1703327,60.8176647 76.9283351,60.4950012 76.569,60.253 C76.2096649,60.0109988 75.69267,59.89 75.018,59.89 C74.5486643,59.89 74.1306685,59.9633326 73.764,60.11 C73.3973315,60.2566674 73.0783347,60.4143325 72.807,60.583 C72.5356653,60.7516675 72.3156675,60.9093326 72.147,61.056 C71.9783325,61.2026674 71.864667,61.276 71.806,61.276 C71.8206667,61.2026663 71.7950003,61.0890008 71.729,60.935 C71.6629997,60.7809992 71.5420009,60.6270008 71.366,60.473 C71.1899991,60.3189992 70.9516682,60.1833339 70.651,60.066 C70.3503318,59.9486661 69.9800022,59.89 69.54,59.89 C69.1293313,59.89 68.7700015,59.9559993 68.462,60.088 C68.1539985,60.2200007 67.8936677,60.3666659 67.681,60.528 C67.4683323,60.6893341 67.2960007,60.8359993 67.164,60.968 C67.0319993,61.1000007 66.936667,61.166 66.878,61.166 C66.9220002,60.9606656 66.9073337,60.7810008 66.834,60.627 C66.7606663,60.4729992 66.6396675,60.3483338 66.471,60.253 C66.3023325,60.1576662 66.1080011,60.0843336 65.888,60.033 C65.6679989,59.9816664 65.4406678,59.956 65.206,59.956 C65.1326663,59.956 65.0336673,59.9596666 64.909,59.967 C64.7843327,59.9743334 64.6560007,59.9926665 64.524,60.022 C64.3919993,60.0513335 64.2636673,60.0916664 64.139,60.143 C64.0143327,60.1943336 63.9153337,60.2713328 63.842,60.374 C63.7979998,60.5500009 63.7210006,60.8909975 63.611,61.397 C63.5009995,61.9030025 63.376334,62.4786634 63.237,63.124 C63.097666,63.7693366 62.9546674,64.4476631 62.808,65.159 C62.6613326,65.8703369 62.5256673,66.5266637 62.401,67.128 C62.2763327,67.7293363 62.1736671,68.2316647 62.093,68.635 C62.0123329,69.0383354 61.972,69.2546665 61.972,69.284 C61.9426665,69.4746676 61.957333,69.6726656 62.016,69.878 C62.074667,70.0833344 62.1809992,70.2703325 62.335,70.439 C62.4890008,70.6076675 62.6943321,70.7469995 62.951,70.857 C63.207668,70.9670006 63.5119982,71.022 63.864,71.022 C64.2746687,71.022 64.5936655,70.8166687 64.821,70.406 C65.0483345,69.9953313 65.2353326,69.4856697 65.382,68.877 C65.5286674,68.2683303 65.6643327,67.6046703 65.789,66.886 C65.9136673,66.1673297 66.074999,65.5036697 66.273,64.895 C66.471001,64.2863303 66.7349984,63.7766687 67.065,63.366 C67.3950017,62.9553313 67.8386639,62.75 68.396,62.75 C68.5573341,62.75 68.6453333,62.8746654 68.66,63.124 C68.6746667,63.3733346 68.6490003,63.695998 68.583,64.092 C68.5169997,64.488002 68.4180007,64.9316642 68.286,65.423 C68.1539993,65.9143358 68.0256673,66.4019976 67.901,66.886 C67.7763327,67.3700024 67.6700004,67.8246645 67.582,68.25 C67.4939996,68.6753355 67.45,69.0199987 67.45,69.284 C67.45,69.4600009 67.4829997,69.6506656 67.549,69.856 C67.6150003,70.0613344 67.7213326,70.2483325 67.868,70.417 C68.0146674,70.5856675 68.2089988,70.7286661 68.451,70.846 C68.6930012,70.9633339 68.9899982,71.022 69.342,71.022 C69.6646683,71.022 69.9323323,70.8716682 70.145,70.571 C70.3576677,70.2703318 70.5299993,69.9183354 70.662,69.515 C70.7940007,69.1116647 70.8929997,68.712002 70.959,68.316 C71.0250003,67.919998 71.0799998,67.6266676 71.124,67.436 C71.182667,67.0546648 71.2669995,66.596336 71.377,66.061 C71.4870006,65.525664 71.6446656,65.0123358 71.85,64.521 C72.0553344,64.0296642 72.3193317,63.6116684 72.642,63.267 C72.9646683,62.9223316 73.3753308,62.75 73.874,62.75 C74.0353341,62.75 74.1343332,62.8526656 74.171,63.058 C74.2076669,63.2633344 74.2040002,63.5309984 74.16,63.861 C74.1159998,64.1910017 74.0426672,64.5613313 73.94,64.972 C73.8373328,65.3826687 73.7383338,65.7896647 73.643,66.193 C73.5476662,66.5963354 73.4633337,66.9739982 73.39,67.326 C73.3166663,67.6780018 73.28,67.9639989 73.28,68.184 C73.28,69.0200042 73.5073311,69.7203305 73.962,70.285 C74.4166689,70.8496695 75.0986621,71.132 76.008,71.132 C76.5653361,71.132 77.0786643,71.0146678 77.548,70.78 C78.0173357,70.5453322 78.4463314,70.230002 78.835,69.834 C79.0024092,69.6634322 79.1609741,69.4819815 79.3106955,69.2896468 C79.4422436,69.6073796 79.6063446,69.8951629 79.803,70.153 C80.1330016,70.5856688 80.5399976,70.8753326 81.024,71.022 C81.6546698,71.2273344 82.3109966,71.1760015 82.993,70.868 C83.6750034,70.5599985 84.3019971,70.06867 84.874,69.394 C84.9473337,69.6140011 85.053666,69.8266656 85.193,70.032 C85.332334,70.2373344 85.5083323,70.4206659 85.721,70.582 C85.9336677,70.7433341 86.1903318,70.8753328 86.491,70.978 C86.7916682,71.0806672 87.1546645,71.132 87.58,71.132 C88.1373361,71.132 88.6506643,71.0146678 89.12,70.78 C89.5893357,70.5453322 90.0183314,70.230002 90.407,69.834 C90.5394686,69.699032 90.6663995,69.5572498 90.7877931,69.408653 C90.8603842,69.6019139 90.9571196,69.7913622 91.078,69.977 C91.2833344,70.2923349 91.5766648,70.5636655 91.958,70.791 C92.3393352,71.0183345 92.8453302,71.132 93.476,71.132 C94.0333361,71.132 94.5466643,71.0146678 95.016,70.78 C95.4853357,70.5453322 95.9143314,70.230002 96.303,69.834 C96.4354686,69.699032 96.5623995,69.5572498 96.6837931,69.408653 C96.7563842,69.6019139 96.8531196,69.7913622 96.974,69.977 C97.1793344,70.2923349 97.4726648,70.5636655 97.854,70.791 C98.2353352,71.0183345 98.7413302,71.132 99.372,71.132 C99.9293361,71.132 100.442664,71.0146678 100.912,70.78 C101.308269,70.5818656 101.67578,70.326229 102.014542,70.0130847 C102.07664,70.1661032 102.167459,70.3080741 102.287,70.439 C102.441001,70.6076675 102.646332,70.7469995 102.903,70.857 C103.159668,70.9670006 103.463998,71.022 103.816,71.022 C104.226669,71.022 104.545666,70.8166687 104.773,70.406 C105.000334,69.9953313 105.187333,69.4856697 105.334,68.877 C105.480667,68.2683303 105.616333,67.6046703 105.741,66.886 C105.865667,66.1673297 106.026999,65.5036697 106.225,64.895 C106.423001,64.2863303 106.686998,63.7766687 107.017,63.366 C107.347002,62.9553313 107.790664,62.75 108.348,62.75 C108.509334,62.75 108.597333,62.8746654 108.612,63.124 C108.626667,63.3733346 108.601,63.695998 108.535,64.092 C108.469,64.488002 108.370001,64.9316642 108.238,65.423 C108.105999,65.9143358 107.977667,66.4019976 107.853,66.886 C107.728333,67.3700024 107.622,67.8246645 107.534,68.25 C107.446,68.6753355 107.402,69.0199987 107.402,69.284 C107.402,69.4600009 107.435,69.6506656 107.501,69.856 C107.567,70.0613344 107.673333,70.2483325 107.82,70.417 C107.966667,70.5856675 108.160999,70.7286661 108.403,70.846 C108.645001,70.9633339 108.941998,71.022 109.294,71.022 C109.616668,71.022 109.884332,70.8716682 110.097,70.571 C110.309668,70.2703318 110.481999,69.9183354 110.614,69.515 C110.746001,69.1116647 110.845,68.712002 110.911,68.316 C110.977,67.919998 111.032,67.6266676 111.076,67.436 C111.134667,67.0546648 111.218999,66.596336 111.329,66.061 C111.439001,65.525664 111.596666,65.0123358 111.802,64.521 C112.007334,64.0296642 112.271332,63.6116684 112.594,63.267 C112.916668,62.9223316 113.327331,62.75 113.826,62.75 C113.987334,62.75 114.086333,62.8526656 114.123,63.058 C114.159667,63.2633344 114.156,63.5309984 114.112,63.861 C114.068,64.1910017 113.994667,64.5613313 113.892,64.972 C113.789333,65.3826687 113.690334,65.7896647 113.595,66.193 C113.499666,66.5963354 113.415334,66.9739982 113.342,67.326 C113.268666,67.6780018 113.232,67.9639989 113.232,68.184 C113.232,69.0200042 113.459331,69.7203305 113.914,70.285 C114.368669,70.8496695 115.050662,71.132 115.96,71.132 C116.517336,71.132 117.030664,71.0146678 117.5,70.78 C117.969336,70.5453322 118.398331,70.230002 118.787,69.834 C118.919469,69.699032 119.0464,69.5572498 119.167793,69.408653 C119.240384,69.6019139 119.33712,69.7913622 119.458,69.977 C119.663334,70.2923349 119.956665,70.5636655 120.338,70.791 C120.719335,71.0183345 121.22533,71.132 121.856,71.132 C122.413336,71.132 122.926664,71.0146678 123.396,70.78 C123.792269,70.5818656 124.15978,70.326229 124.498542,70.0130847 C124.56064,70.1661032 124.651459,70.3080741 124.771,70.439 C124.925001,70.6076675 125.130332,70.7469995 125.387,70.857 C125.643668,70.9670006 125.947998,71.022 126.3,71.022 C126.710669,71.022 127.029666,70.8166687 127.257,70.406 C127.484334,69.9953313 127.671333,69.4856697 127.818,68.877 C127.964667,68.2683303 128.100333,67.6046703 128.225,66.886 C128.349667,66.1673297 128.510999,65.5036697 128.709,64.895 C128.907001,64.2863303 129.170998,63.7766687 129.501,63.366 C129.831002,62.9553313 130.274664,62.75 130.832,62.75 C130.993334,62.75 131.092333,62.848999 131.129,63.047 C131.165667,63.245001 131.162,63.5053317 131.118,63.828 C131.074,64.1506683 131.004334,64.5136647 130.909,64.917 C130.813666,65.3203354 130.714667,65.7236647 130.612,66.127 C130.509333,66.5303354 130.421334,66.9116649 130.348,67.271 C130.274666,67.6303351 130.238,67.9346654 130.238,68.184 C130.238,68.3893344 130.263666,68.660665 130.315,68.998 C130.366334,69.335335 130.483666,69.6616651 130.667,69.977 C130.850334,70.2923349 131.121665,70.5636655 131.481,70.791 C131.840335,71.0183345 132.33533,71.132 132.966,71.132 C133.523336,71.132 134.036664,71.0146678 134.506,70.78 C134.975336,70.5453322 135.404331,70.230002 135.793,69.834 C136.009775,69.6131349 136.211721,69.3740224 136.398839,69.1166601 C136.536931,69.334649 136.697985,69.5407618 136.882,69.735 C137.278002,70.1530021 137.78033,70.490332 138.389,70.747 C138.99767,71.0036679 139.734662,71.132 140.6,71.132 C141.36267,71.132 142.055664,70.9853348 142.679,70.692 C143.302336,70.3986652 143.852331,70.0320022 144.329,69.592 C144.805669,69.1519978 145.197998,68.6790025 145.506,68.173 C145.814002,67.6669975 146.037666,67.1940022 146.177,66.754 C146.184343,66.7308125 146.19141,66.7078288 146.198203,66.6850487 C146.221313,66.6412808 146.239912,66.5982646 146.254,66.556 C146.503335,65.8079963 146.704999,65.0746703 146.859,64.356 C147.013001,63.6373297 147.126666,62.9993361 147.2,62.442 C147.596002,62.6620011 147.951665,62.8636657 148.267,63.047 C148.582335,63.2303342 148.74,63.4099991 148.74,63.586 C148.74,63.7033339 148.692334,63.9673313 148.597,64.378 C148.501666,64.7886687 148.391667,65.2579974 148.267,65.786 C148.142333,66.3140026 148.032334,66.8529972 147.937,67.403 C147.841666,67.9530027 147.794,68.425998 147.794,68.822 C147.794,69.0273344 147.830666,69.2619987 147.904,69.526 C147.977334,69.7900013 148.109332,70.0429988 148.3,70.285 C148.490668,70.5270012 148.747332,70.7323325 149.07,70.901 C149.392668,71.0696675 149.795998,71.154 150.28,71.154 C150.837336,71.154 151.343331,71.0366678 151.798,70.802 C152.252669,70.5673322 152.663332,70.252002 153.03,69.856 C153.396669,69.459998 153.722999,69.0053359 154.009,68.492 C154.295001,67.9786641 154.540666,67.4433361 154.746,66.886 L154.878,66.424 C154.907333,66.3066661 154.925667,66.178334 154.933,66.039 C154.940333,65.899666 154.933,65.7713339 154.911,65.654 C154.889,65.5366661 154.837667,65.4376671 154.757,65.357 C154.676333,65.2763329 154.562667,65.236 154.416,65.236 C154.225332,65.236 154.064001,65.2799996 153.932,65.368 C153.799999,65.4560004 153.69,65.5623327 153.602,65.687 C153.514,65.8116673 153.440667,65.9473326 153.382,66.094 C153.323333,66.2406674 153.272,66.3653328 153.228,66.468 C153.125333,66.7320013 153.011667,66.9813322 152.887,67.216 C152.762333,67.4506678 152.634001,67.6559991 152.502,67.832 C152.369999,68.0080009 152.230667,68.1509994 152.084,68.261 C151.937333,68.3710005 151.798001,68.426 151.666,68.426 C151.416665,68.426 151.259,68.3416675 151.193,68.173 C151.127,68.0043325 151.116,67.7806681 151.16,67.502 C151.204,67.2233319 151.284666,66.9006685 151.402,66.534 C151.519334,66.1673315 151.636666,65.7896686 151.754,65.401 C151.871334,65.0123314 151.977666,64.6273352 152.073,64.246 C152.168334,63.8646648 152.216,63.5200015 152.216,63.212 C152.216,62.8453315 152.109668,62.5336679 151.897,62.277 C151.684332,62.020332 151.420335,61.8003342 151.105,61.617 C150.789665,61.4336657 150.445002,61.2796673 150.071,61.155 C149.696998,61.0303327 149.352335,60.9276671 149.037,60.847 C148.721665,60.7663329 148.457668,60.6930003 148.245,60.627 C148.032332,60.5609997 147.926,60.4913337 147.926,60.418 C147.926,60.3006661 147.951666,60.1650008 148.003,60.011 C148.054334,59.8569992 148.08,59.611335 148.08,59.274 C148.08,59.215333 148.065333,59.1200007 148.036,58.988 C148.006667,58.8559993 147.948,58.7240007 147.86,58.592 C147.772,58.4599993 147.640001,58.3463338 147.464,58.251 C147.287999,58.1556662 147.053335,58.108 146.76,58.108 C146.290664,58.108 145.894668,58.2986648 145.572,58.68 C145.249332,59.0613352 145.088,59.5599969 145.088,60.176 C145.088,60.4546681 145.157666,60.7076655 145.297,60.935 C145.436334,61.1623345 145.615999,61.3713324 145.836,61.562 C145.777333,62.0313357 145.689334,62.5666637 145.572,63.168 C145.454666,63.7693363 145.308001,64.3779969 145.132,64.994 C145.058666,65.2286678 144.985334,65.4596655 144.912,65.687 C144.873226,65.8072001 144.832402,65.9243241 144.789528,66.0383729 Z M82.674,67.964 C82.8500009,68.022667 83.0333324,68.0080004 83.224,67.92 C83.4146676,67.8319996 83.608999,67.6853344 83.807,67.48 C84.005001,67.2746656 84.1883325,67.0253348 84.357,66.732 C84.5256675,66.4386652 84.6759993,66.1086685 84.808,65.742 C85.0573346,64.9939963 85.1490003,64.3303362 85.083,63.751 C85.0169997,63.1716638 84.815335,62.8233339 84.478,62.706 C84.3019991,62.647333 84.1186676,62.6656662 83.928,62.761 C83.7373324,62.8563338 83.543001,63.002999 83.345,63.201 C83.146999,63.399001 82.9636675,63.6483318 82.795,63.949 C82.6263325,64.2496682 82.4760007,64.5833315 82.344,64.95 C82.2119993,65.3166685 82.1240002,65.668665 82.08,66.006 C82.0359998,66.343335 82.0286665,66.6513319 82.058,66.93 C82.0873335,67.2086681 82.1533328,67.4396657 82.256,67.623 C82.3586672,67.8063342 82.4979991,67.9199998 82.674,67.964 Z M93.146,56.128 C93.2633339,55.8933322 93.420999,55.6733344 93.619,55.468 C93.817001,55.2626656 94.0333322,55.0940007 94.268,54.962 C94.5026678,54.8299993 94.7556653,54.7530001 95.027,54.731 C95.2983347,54.7089999 95.5659987,54.7639993 95.83,54.896 C96.0500011,55.0133339 96.229666,55.1746656 96.369,55.38 C96.508334,55.5853344 96.6036664,55.8199987 96.655,56.084 C96.7063336,56.3480013 96.7063336,56.6303318 96.655,56.931 C96.6036664,57.2316682 96.5046674,57.5286652 96.358,57.822 C96.2406661,58.0420011 96.083001,58.2546656 95.885,58.46 C95.686999,58.6653344 95.4670012,58.837666 95.225,58.977 C94.9829988,59.116334 94.7263347,59.2006665 94.455,59.23 C94.1836653,59.2593335 93.9160013,59.2006674 93.652,59.054 C93.4319989,58.9513328 93.252334,58.7936677 93.113,58.581 C92.973666,58.3683323 92.8820002,58.1300013 92.838,57.866 C92.7939998,57.6019987 92.7976664,57.3196682 92.849,57.019 C92.9003336,56.7183318 92.9993326,56.4213348 93.146,56.128 Z M121.526,56.128 C121.643334,55.8933322 121.800999,55.6733344 121.999,55.468 C122.197001,55.2626656 122.413332,55.0940007 122.648,54.962 C122.882668,54.8299993 123.135665,54.7530001 123.407,54.731 C123.678335,54.7089999 123.945999,54.7639993 124.21,54.896 C124.430001,55.0133339 124.609666,55.1746656 124.749,55.38 C124.888334,55.5853344 124.983666,55.8199987 125.035,56.084 C125.086334,56.3480013 125.086334,56.6303318 125.035,56.931 C124.983666,57.2316682 124.884667,57.5286652 124.738,57.822 C124.620666,58.0420011 124.463001,58.2546656 124.265,58.46 C124.066999,58.6653344 123.847001,58.837666 123.605,58.977 C123.362999,59.116334 123.106335,59.2006665 122.835,59.23 C122.563665,59.2593335 122.296001,59.2006674 122.032,59.054 C121.811999,58.9513328 121.632334,58.7936677 121.493,58.581 C121.353666,58.3683323 121.262,58.1300013 121.218,57.866 C121.174,57.6019987 121.177666,57.3196682 121.229,57.019 C121.280334,56.7183318 121.379333,56.4213348 121.526,56.128 Z M141.37,62.486 C141.135332,62.486 140.893335,62.5703325 140.644,62.739 C140.394665,62.9076675 140.160001,63.1349986 139.94,63.421 C139.719999,63.7070014 139.533001,64.0333315 139.379,64.4 C139.224999,64.7666685 139.126,65.147998 139.082,65.544 C139.331335,65.485333 139.609998,65.3680009 139.918,65.192 C140.226002,65.0159991 140.519332,64.799668 140.798,64.543 C141.076668,64.2863321 141.307666,64.0076682 141.491,63.707 C141.674334,63.4063318 141.766,63.1093348 141.766,62.816 L141.766,62.794 C141.766,62.7059996 141.740334,62.632667 141.689,62.574 C141.637666,62.515333 141.531334,62.486 141.37,62.486 Z" id="mailminer"></path>
        </g>
    </g>
</svg>